#N canvas 752 232 794 524 10;
#X obj 587 244 metro;
#X msg 431 81 60000;
#X obj 483 132 /;
#X floatatom 529 39 5 0 0 0 - - -, f 5;
#X floatatom 479 202 5 0 0 0 - - -, f 5;
#X obj 446 29 t;
#X obj 373 332 vline~;
#X obj 269 382 *~;
#X obj 634 53 tgl 15 0 empty empty empty 17 7 0 10 -262144 -1 -1 0
1;
#X obj 225 315 osc~ 800;
#X msg 395 280 1 0 \, 0 20 20;
#X obj 527 4 inlet;
#X obj 631 5 inlet;
#X obj 242 456 outlet~;
#X obj 402 203 s bpm;
#X connect 0 0 10 0;
#X connect 1 0 2 0;
#X connect 2 0 4 0;
#X connect 3 0 2 1;
#X connect 3 0 5 0;
#X connect 4 0 0 1;
#X connect 4 0 14 0;
#X connect 5 0 1 0;
#X connect 6 0 7 1;
#X connect 7 0 13 0;
#X connect 8 0 0 0;
#X connect 9 0 7 0;
#X connect 10 0 6 0;
#X connect 11 0 3 0;
#X connect 12 0 8 0;
