#N canvas 774 271 450 300 10;
#X obj 133 213 outlet~;
#X obj 210 213 outlet~;
#X obj 101 70 inlet~;
#X obj 152 70 inlet~;
#X obj 206 71 inlet~;
#X obj 261 70 inlet~;
#X obj 25 151 effectselector;
#X connect 2 0 0 0;
#X connect 2 0 1 0;
#X connect 3 0 0 0;
#X connect 3 0 1 0;
#X connect 4 0 0 0;
#X connect 4 0 1 0;
#X connect 5 0 0 0;
#X connect 5 0 1 0;
#X connect 6 1 1 0;
