#N canvas 980 23 908 531 10;
#X obj 146 40 inlet;
#X obj 559 109 peak;
#X obj 501 109 trough;
#X obj 604 216 s peak;
#X obj 526 219 s trough;
#X obj 359 399 vline~;
#X obj 340 462 outlet~;
#X obj 232 188 r bpm;
#X obj 239 264 metro;
#X obj 121 235 r mobileDataOnOff;
#X msg 353 320 \$1 10 \, 0 0 30;
#X obj 389 234 scaling 0 100 1 0;
#X connect 0 0 2 0;
#X connect 0 0 1 0;
#X connect 0 0 11 0;
#X connect 1 0 3 0;
#X connect 1 0 11 2;
#X connect 2 0 4 0;
#X connect 2 0 11 1;
#X connect 5 0 6 0;
#X connect 7 0 8 1;
#X connect 9 0 8 0;
#X connect 10 0 5 0;
#X connect 11 0 10 0;
