#N canvas 482 23 965 893 10;
#X obj 76 1 inlet;
#X obj 212 1 inlet;
#X obj 274 1 inlet;
#X obj 349 717 r fred;
#X obj 422 715 r sue;
#X floatatom 354 770 5 0 0 0 - - -, f 5;
#X floatatom 415 767 5 0 0 0 - - -, f 5;
#X msg 122 655 \; fred \$1 \; sue \$2 \;;
#X obj 67 653 print;
#X msg 232 711 \$1;
#X msg 159 118 .wav;
#X obj 32 161 symbol;
#X obj 165 149 symbol;
#X obj 236 397 writesf~ 2;
#X obj 73 209 pack s s s;
#X msg 26 128 open;
#X obj 92 163 symbol;
#X obj 62 393 print;
#X obj 76 34 bng 15 250 50 0 empty empty empty 17 7 0 10 -262144 -1
-1;
#X obj 86 76 t b b b;
#X msg 57 288 \$1 \$2\$3;
#X msg 211 71 start;
#X msg 275 72 stop;
#X obj 211 39 bng 15 250 50 0 empty empty empty 17 7 0 10 -262144 -1
-1;
#X obj 275 39 bng 15 250 50 0 empty empty empty 17 7 0 10 -262144 -1
-1;
#X obj 487 3 inlet;
#X msg 573 128 .wav;
#X obj 446 171 symbol;
#X obj 579 159 symbol;
#X obj 487 219 pack s s s;
#X msg 440 138 open;
#X obj 506 173 symbol;
#X obj 421 392 print;
#X obj 490 44 bng 15 250 50 0 empty empty empty 17 7 0 10 -262144 -1
-1;
#X obj 500 86 t b b b;
#X msg 471 298 \$1 \$2\$3;
#X obj 572 395 readsf~ 2;
#X obj 282 597 set;
#X obj 136 0 inlet;
#X obj 591 3 inlet;
#X obj 652 4 inlet;
#X obj 620 477 outlet~;
#X obj 551 478 outlet~;
#X obj 437 484 dac~;
#X obj 803 9 inlet;
#X obj 656 84 bng 15 250 50 0 empty empty empty 17 7 0 10 -262144 -1
-1;
#X msg 656 144 1;
#X obj 324 1 inlet~;
#X obj 376 2 inlet~;
#X msg 499 134 sound;
#X obj 716 369 spigot;
#X msg 150 48 sound;
#X obj 675 416 t b b;
#X msg 88 123 sound;
#X msg 896 201 1;
#X msg 831 233 0;
#X obj 718 397 delay 10;
#X obj 865 15 inlet;
#X connect 0 0 18 0;
#X connect 1 0 23 0;
#X connect 2 0 24 0;
#X connect 3 0 5 0;
#X connect 4 0 6 0;
#X connect 10 0 12 0;
#X connect 11 0 14 0;
#X connect 12 0 14 2;
#X connect 14 0 20 0;
#X connect 15 0 11 0;
#X connect 16 0 14 1;
#X connect 18 0 19 0;
#X connect 19 0 15 0;
#X connect 19 1 53 0;
#X connect 19 2 10 0;
#X connect 20 0 13 0;
#X connect 20 0 17 0;
#X connect 21 0 13 0;
#X connect 22 0 13 0;
#X connect 23 0 21 0;
#X connect 24 0 22 0;
#X connect 25 0 33 0;
#X connect 26 0 28 0;
#X connect 27 0 29 0;
#X connect 28 0 29 2;
#X connect 29 0 35 0;
#X connect 30 0 27 0;
#X connect 31 0 29 1;
#X connect 33 0 34 0;
#X connect 34 0 30 0;
#X connect 34 1 49 0;
#X connect 34 2 26 0;
#X connect 35 0 36 0;
#X connect 35 0 32 0;
#X connect 36 0 42 0;
#X connect 36 0 43 0;
#X connect 36 1 41 0;
#X connect 36 1 43 1;
#X connect 36 2 50 0;
#X connect 40 0 45 0;
#X connect 44 0 50 1;
#X connect 45 0 46 0;
#X connect 46 0 36 0;
#X connect 47 0 13 0;
#X connect 48 0 13 0;
#X connect 49 0 31 0;
#X connect 50 0 56 0;
#X connect 52 0 45 0;
#X connect 52 1 33 0;
#X connect 53 0 16 0;
#X connect 54 0 50 1;
#X connect 55 0 50 1;
#X connect 56 0 52 0;
#X connect 57 0 50 1;
#X connect 57 0 36 0;
