#N canvas 206 195 450 300 10;
#X floatatom 68 81 5 0 0 0 - - -;
#X floatatom 89 214 5 0 0 0 - - -;
#X obj 69 170 expr ((($f1-$f2)/($f3-$f2))*($f5-$f4))+$f4;
#X obj 63 31 inlet;
#X obj 112 30 inlet;
#X obj 163 30 inlet;
#X obj 212 29 inlet;
#X obj 266 29 inlet;
#X obj 67 250 outlet;
#X obj 151 77 loadbang;
#X obj 149 116 f \$1;
#X obj 197 118 f \$2;
#X obj 252 116 f \$3;
#X obj 300 118 f \$4;
#X connect 0 0 2 0;
#X connect 2 0 1 0;
#X connect 2 0 8 0;
#X connect 3 0 0 0;
#X connect 4 0 2 1;
#X connect 5 0 2 2;
#X connect 6 0 2 3;
#X connect 7 0 2 4;
#X connect 9 0 10 0;
#X connect 9 0 11 0;
#X connect 9 0 12 0;
#X connect 9 0 13 0;
#X connect 10 0 2 1;
#X connect 11 0 2 2;
#X connect 12 0 2 3;
#X connect 13 0 2 4;
