#N canvas 568 182 1083 796 10;
#X obj 53 86 osc~;
#X obj 110 88 phasor~;
#X floatatom 240 32 5 0 0 0 - - -, f 5;
#X obj 194 97 phasor~ 440;
#X obj 213 139 expr~ $v1 > 0.5;
#X obj 325 94 phasor~ 440;
#X obj 344 136 expr~ $v1 > $v2;
#X obj 685 244 inlet;
#X obj 732 244 inlet;
#X obj 776 244 inlet;
#X obj 818 244 inlet;
#X obj 92 315 *~;
#X obj 121 315 *~;
#X obj 150 315 *~;
#X obj 182 315 *~;
#X obj 27 10 inlet;
#X obj 424 3 inlet;
#X obj 98 368 outlet~;
#N canvas 0 22 450 278 (subpatch) 0;
#X array array1 100 float 5;
#A 0 0 0 0 0 0 0 0 0 0 0 0 0 0 0 0 0 0 0 0 0 0 0 0 0 0 0 0 0 0 0 0
0 0 0 0 0 0 0 0 0 0 0 0 0 0 0 0 0 0 0 0 0 0 1 1 1 1 1 1 1 1 1 1 1 0
0 0 0 0 0 0 0 0 0 0 0 0 0 0 0 0 0 0 0 0 0 0 0 0 0 0 0 0 0 0 0 0 0 0
0;
#X coords 0 1 100 -1 200 140 1;
#X restore 413 400 graph;
#X connect 0 0 11 0;
#X connect 1 0 12 0;
#X connect 3 0 4 0;
#X connect 4 0 13 0;
#X connect 5 0 6 0;
#X connect 6 0 14 0;
#X connect 7 0 11 1;
#X connect 8 0 12 1;
#X connect 9 0 13 1;
#X connect 10 0 14 1;
#X connect 11 0 17 0;
#X connect 12 0 17 0;
#X connect 13 0 17 0;
#X connect 14 0 17 0;
#X connect 15 0 2 0;
#X connect 15 0 0 0;
#X connect 15 0 1 0;
#X connect 15 0 3 0;
#X connect 15 0 5 0;
#X connect 16 0 6 1;
