#N canvas 248 22 1501 893 10;
#X obj 17 14 tgl 15 0 empty empty empty 17 7 0 10 -262144 -1 -1 0 1
;
#X obj 17 49 s onOff;
#X obj 98 9 r a_input_0;
#X obj 179 9 r a_input_1;
#X obj 259 9 r a_input_2;
#X obj 338 9 r a_input_3;
#X msg 546 217 show;
#X msg 601 218 hide;
#X text 604 186 Pixel no \, R \, G \, B;
#X text 594 253 waveform no \, duration;
#X obj 474 12 r d_input_6;
#X obj 579 11 r d_input_9;
#X msg 537 253 V1 100;
#X msg 522 186 N1 100 245 10;
#X obj 1315 155 s ble;
#X obj 15 84 r onOff;
#X obj 568 342 r wifiOnOff;
#X obj 398 48 r mobileDataOnOff;
#X obj 90 641 r gpsOnOff;
#X obj 929 420 r doNotDisturbOnOff;
#X obj 400 548 synthselector;
#X obj 23 778 readwriteaudio, f 23;
#X obj 247 325 tomidinote;
#X floatatom 265 118 5 0 0 0 - - -, f 5;
#X obj 829 545 metronome;
#X obj 491 551 pressuresensor_envelope_trigger;
#X obj 298 922 dac~;
#X obj 417 784 *~;
#X obj 14 554 r audioRecordEnterOne;
#X obj 25 599 r audioRecordStartOne;
#X obj 25 615 r audioRecordStopOne;
#X obj 25 580 r audioRecordFilenameOne;
#X obj 203 584 r audioPlaybackFilenameOne;
#X obj 215 606 r audioPlaybackStartOne;
#X obj 222 626 r audioPlaybackLoopOnOffOne;
#X obj 173 871 mixer, f 49;
#X obj 817 383 r metronomeBpm;
#X obj 915 383 r metronomeOnOff;
#X obj 265 87 spigot;
#X obj 358 94 spigot;
#X obj 19 692 spigot;
#X obj 58 692 spigot;
#X obj 143 692 spigot;
#X obj 97 692 spigot;
#X obj 185 692 spigot;
#X obj 228 692 spigot;
#X obj 462 489 spigot;
#X obj 342 385 r pulseWidthOne;
#X obj 97 722 adc~;
#X obj 23 356 s audioRecordFilenameOne;
#X obj 23 449 s audioPlaybackFilenameOne;
#X msg 59 302 sound;
#X msg 58 384 sound;
#X obj 891 234 s gpsOnOff;
#X msg 949 164 1;
#X obj 189 560 r audioPlaybackFileOpenOne;
#X obj 898 458 spigot;
#X obj 281 661 r audioPlaybackStopOne;
#X obj 463 423 r sineWaveOnOff;
#X obj 601 424 r sawWaveOnOff;
#X obj 567 411 r squareWaveOnOff;
#X obj 616 446 r pulseWaveOnOff;
#X obj 506 493 spigot;
#X obj 548 494 spigot;
#X obj 592 494 spigot;
#X obj 204 409 print;
#X connect 0 0 1 0;
#X connect 2 0 38 0;
#X connect 3 0 39 0;
#X connect 16 0 46 1;
#X connect 16 0 62 1;
#X connect 16 0 63 1;
#X connect 16 0 64 1;
#X connect 17 0 39 1;
#X connect 17 0 38 1;
#X connect 18 0 40 1;
#X connect 18 0 41 1;
#X connect 18 0 43 1;
#X connect 18 0 42 1;
#X connect 18 0 44 1;
#X connect 18 0 45 1;
#X connect 19 0 56 1;
#X connect 20 0 27 0;
#X connect 21 0 35 0;
#X connect 21 1 35 0;
#X connect 22 0 20 0;
#X connect 22 0 65 0;
#X connect 23 0 22 0;
#X connect 23 0 22 1;
#X connect 23 0 22 2;
#X connect 24 0 35 2;
#X connect 25 0 27 1;
#X connect 27 0 35 1;
#X connect 28 0 40 0;
#X connect 29 0 41 0;
#X connect 30 0 43 0;
#X connect 31 0 21 1;
#X connect 32 0 21 7;
#X connect 33 0 44 0;
#X connect 34 0 45 0;
#X connect 35 0 26 0;
#X connect 35 1 26 1;
#X connect 36 0 24 0;
#X connect 37 0 56 0;
#X connect 38 0 23 0;
#X connect 39 0 25 0;
#X connect 40 0 21 0;
#X connect 41 0 21 2;
#X connect 42 0 21 6;
#X connect 43 0 21 3;
#X connect 44 0 21 8;
#X connect 45 0 21 9;
#X connect 46 0 20 2;
#X connect 47 0 20 1;
#X connect 48 0 21 4;
#X connect 48 1 21 5;
#X connect 51 0 49 0;
#X connect 52 0 50 0;
#X connect 54 0 53 0;
#X connect 55 0 42 0;
#X connect 56 0 24 1;
#X connect 57 0 21 10;
#X connect 58 0 46 0;
#X connect 59 0 63 0;
#X connect 60 0 62 0;
#X connect 61 0 64 0;
#X connect 62 0 20 3;
#X connect 63 0 20 4;
#X connect 64 0 20 5;
