#N canvas 1418 383 450 300 10;
#X obj 93 95 trough;
#X obj 177 101 peak;
#X obj 89 20 inlet;
#X obj 228 21 inlet;
#X obj 56 251 outlet;
#X obj 56 196 mtof;
#X obj 42 14 inlet;
#X obj 194 160 s trough;
#X obj 263 161 s peak;
#X obj 57 156 scaling 0 100 48 108;
#X connect 0 0 7 0;
#X connect 0 0 9 1;
#X connect 1 0 8 0;
#X connect 1 0 9 2;
#X connect 2 0 0 0;
#X connect 3 0 1 0;
#X connect 5 0 4 0;
#X connect 6 0 9 0;
#X connect 9 0 5 0;
