#N canvas 450 260 450 300 10;
#X floatatom 85 46 5 0 0 0 - - -;
#X obj 85 20 inlet;
#X obj 78 228 outlet;
#X obj 155 107 f;
#X obj 83 129 sel 0 1;
#X floatatom 153 188 5 0 0 0 - - -;
#X obj 154 18 inlet;
#X obj 84 105 <;
#X msg 154 72 1e+10;
#X obj 216 38 loadbang;
#X connect 0 0 3 1;
#X connect 0 0 7 0;
#X connect 1 0 0 0;
#X connect 3 0 5 0;
#X connect 3 0 7 1;
#X connect 4 1 3 0;
#X connect 5 0 2 0;
#X connect 6 0 8 0;
#X connect 7 0 4 0;
#X connect 8 0 3 0;
#X connect 9 0 8 0;
